<svg xmlns="http://www.w3.org/2000/svg" viewBox="0 0 100 100" fill="none">
  <rect width="100" height="100" rx="20" fill="url(#a)"/>
  <path d="M50 25c-13.8 0-25 11.2-25 25s11.2 25 25 25 25-11.2 25-25S63.8 25 50 25zm0 4c11.6 0 21 9.4 21 21s-9.4 21-21 21-21-9.4-21-21 9.4-21 21-21z" fill="#fff" opacity=".9"/>
  <circle cx="50" cy="50" r="8" fill="#fff"/>
  <path d="M50 38v-6M50 68v-6M38 50h-6M68 50h-6M42.3 42.3l-4.2-4.2M61.9 61.9l-4.2-4.2M42.3 57.7l-4.2 4.2M61.9 38.1l-4.2 4.2" stroke="#fff" stroke-width="3" stroke-linecap="round"/>
  <defs>
    <linearGradient id="a" x1="0" y1="0" x2="100" y2="100" gradientUnits="userSpaceOnUse">
      <stop stop-color="#0d9488"/>
      <stop offset="1" stop-color="#0c4a6e"/>
    </linearGradient>
  </defs>
</svg>